<svg xmlns="http://www.w3.org/2000/svg" viewBox="0 0 142 108"><title>Location icon</title><g fill-rule="evenodd" fill="none"><path fill-rule="nonzero" fill="#b2e3e6" d="m71 103.25c17.8111832 0 32.25-14.4388168 32.25-32.25s-14.4388168-32.25-32.25-32.25-32.25 14.4388168-32.25 32.25 14.4388168 32.25 32.25 32.25zm0-.5c-17.5350408 0-31.75-14.2149592-31.75-31.75s14.2149592-31.75 31.75-31.75 31.75 14.2149592 31.75 31.75-14.2149592 31.75-31.75 31.75z"/><path fill-rule="nonzero" fill="#7fd1d6" d="m71 90.25c10.6314814 0 19.25-8.6185186 19.25-19.25s-8.6185186-19.25-19.25-19.25-19.25 8.6185186-19.25 19.25 8.6185186 19.25 19.25 19.25zm0-.5c-10.3553391 0-18.75-8.3946609-18.75-18.75s8.3946609-18.75 18.75-18.75 18.75 8.3946609 18.75 18.75-8.3946609 18.75-18.75 18.75z"/><path fill-rule="nonzero" fill="#00a3ad" d="m71.5 81.25c5.3847763 0 9.75-4.3652237 9.75-9.75s-4.3652237-9.75-9.75-9.75-9.75 4.3652237-9.75 9.75 4.3652237 9.75 9.75 9.75zm0-.5c-5.1086339 0-9.25-4.1413661-9.25-9.25s4.1413661-9.25 9.25-9.25 9.25 4.1413661 9.25 9.25-4.1413661 9.25-9.25 9.25z"/><ellipse ry="2.464286" rx="2.5" fill="#00a3ad" cy="71.464286" cx="71.5"/><path fill-rule="nonzero" fill="#c7c7c7" d="m27.4872881 106.86h-2.5v-87.1390909c0-6.699214 5.430786-12.13000001 12.13-12.13000001h67.1213559c6.699214 0 12.13 5.43078601 12.13 12.13000001v87.1390909h-2.5v-87.1390909c0-5.3185021-4.311498-9.63-9.63-9.63h-67.1213559c-5.3185021 0-9.63 4.3114979-9.63 9.63zm34.8177966-86.6043182c-.9872086 0-1.7881355-.7984121-1.7881355-1.7840909s.8009269-1.7840909 1.7881355-1.7840909c.9872087 0 1.7881356.7984121 1.7881356 1.7840909s-.8009269 1.7840909-1.7881356 1.7840909zm0-1c.4356267 0 .7881356-.3514021.7881356-.7840909s-.3525089-.7840909-.7881356-.7840909c-.4356266 0-.7881355.3514021-.7881355.7840909s.3525089.7840909.7881355.7840909zm-28.4830508 87.6043182h-1v-79.3881666c0-.9903811.7955597-1.795697 1.78-1.795697h72.7959321c.98444 0 1.78.8053159 1.78 1.795697v79.3881666h-1v-79.3881666c0-.4408063-.350591-.795697-.78-.795697h-72.7959321c-.4294087 0-.78.3548907-.78.795697zm33.6274576-90.1725h11.6094916c.9830668 0 1.78.7969331 1.78 1.78v.0081818c0 .9830669-.7969332 1.78-1.78 1.78h-11.6094916c-.9830668 0-1.78-.7969331-1.78-1.78v-.0081818c0-.9830669.7969332-1.78 1.78-1.78zm0 1c-.4307821 0-.78.3492179-.78.78v.0081818c0 .4307821.3492179.78.78.78h11.6094916c.4307821 0 .78-.3492179.78-.78v-.0081818c0-.4307821-.3492179-.78-.78-.78z"/><circle r="16" fill="#00a3ad" cy="16" cx="115"/><g fill-rule="nonzero"><path fill="#fff" d="m112.757859 18.4088078-4.604715-1.5349051c-.704323-.234774-.773197-1.2039047-.109155-1.5359254l13.333333-6.66666663c.716296-.35814813 1.476182.40173772 1.118034 1.11803399l-6.666667 13.33333334c-.33202.6640413-1.301151.5951673-1.535925-.1091549z"/><path fill="#fff" d="m57.4284414 41.0022492c.0241183 0 .0477816-.0011246.0714448-.0022492.0236633.0011246.047099.0022492.0714449.0022492 5.7506257.0897442 10.4286689 4.788155 10.4286689 10.4742016 0 6.9519116-7.6058833 12.0012657-10.5920039 14.5235492-3.0314033-2.6024543-10.4079961-8.0437504-10.4079961-14.5235492-.0002275-5.6860466 4.6782708-10.3842325 10.4284414-10.4742016zm.0715586 14.9922244c2.4852814 0 4.5-2.0139763 4.5-4.4983421 0-2.4843657-2.0147186-4.4983421-4.5-4.4983421s-4.5 2.0139764-4.5 4.4983421c0 2.4843658 2.0147186 4.4983421 4.5 4.4983421z"/><path fill="#c7c7c7" d="m57.4284414 41.0022492c.0241183 0 .0477816-.0011246.0714448-.0022492.0236633.0011246.047099.0022492.0714449.0022492 5.7506257.0897442 10.4286689 4.788155 10.4286689 10.4742016 0 6.9519116-7.6058833 12.0012657-10.5920039 14.5235492-3.0314033-2.6024543-10.4079961-8.0437504-10.4079961-14.5235492-.0002275-5.6860466 4.6782708-10.3842325 10.4284414-10.4742016zm0 .8.0125155-.0000979c-5.3155678.0831692-9.6411669 4.427508-9.6409569 9.6742995 0 3.2688309 2.0076082 6.5256656 5.5968918 9.9739233.7497076.7202511 1.5337342 1.4180178 2.4695745 2.2111446.2376831.2014371 1.0127607.8482732 1.5580253 1.3057338 1.0475632-.8447018 3.2743591-2.6638532 4.1470002-3.4647788 3.6243962-3.3265357 5.6285082-6.5498758 5.6285082-10.0260229 0-5.2470501-4.3254229-9.5913418-9.6286689-9.6742016-.0417594-.0005369-.0518577-.0006668-.0711742-.0014434-.0154007.0005394-.0316647.0008005-.0717155.0014434zm.0715586 14.1922244c-2.4852814 0-4.5-2.0139763-4.5-4.4983421 0-2.4843657 2.0147186-4.4983421 4.5-4.4983421s4.5 2.0139764 4.5 4.4983421c0 2.4843658-2.0147186 4.4983421-4.5 4.4983421zm0-.8c2.0435196 0 3.7-1.6558702 3.7-3.6983421s-1.6564804-3.6983421-3.7-3.6983421-3.7 1.6558702-3.7 3.6983421 1.6564804 3.6983421 3.7 3.6983421z"/><path fill="#fff" d="m93.4557018 50.0014395c.0149304 0 .0295791-.0007197.0442278-.0014395.0146487.0007198.0291565.0014395.0442277.0014395 3.5599112.0574363 6.4558427 3.0644192 6.4558427 6.703489 0 4.4492235-4.708404 7.6808101-6.5569548 9.2950715-1.876583-1.6655707-6.4430452-5.1480002-6.4430452-9.2950715-.0001409-3.6390698 2.8960724-6.6459088 6.4557018-6.703489zm.0442982 9.5950236c1.5385075 0 2.7857143-1.2889449 2.7857143-2.8789389 0-1.5899941-1.2472068-2.878939-2.7857143-2.878939s-2.7857143 1.2889449-2.7857143 2.878939c0 1.589994 1.2472068 2.8789389 2.7857143 2.8789389z"/><path fill="#c7c7c7" d="m93.4557018 50.0014395c.0149304 0 .0295791-.0007197.0442278-.0014395.0146487.0007198.0291565.0014395.0442277.0014395 3.5599112.0574363 6.4558427 3.0644192 6.4558427 6.703489 0 4.4492235-4.708404 7.6808101-6.5569548 9.2950715-1.876583-1.6655707-6.4430452-5.1480002-6.4430452-9.2950715-.0001409-3.6390698 2.8960724-6.6459088 6.4557018-6.703489zm0 .8.0111568-.0000902c-3.1622021.0511514-5.724125 2.7112603-5.7240015 5.9035792 0 1.9847099 1.2062279 4.0077386 3.377654 6.1644543.4597167.4566023.9412917.8996999 1.5168844 1.4040268.1261297.1105132.5007844.4339899.8185232.7091638.6907291-.5779714 1.9113933-1.6125172 2.4083022-2.0840254 2.19127-2.0792578 3.392922-4.0773648 3.392922-6.1936195 0-3.1924805-2.5618159-5.8525577-5.7129856-5.903489-.0252785-.0003381-.0350551-.0004689-.0450162-.0008034-.009263.0002334-.0216215.0004395-.0434393.0008034zm.0442982 8.7950236c-1.5385075 0-2.7857143-1.2889449-2.7857143-2.8789389 0-1.5899941 1.2472068-2.878939 2.7857143-2.878939s2.7857143 1.2889449 2.7857143 2.878939c0 1.589994-1.2472068 2.8789389-2.7857143 2.8789389zm0-.8c1.1349284 0 2.0428571-.9383128 2.0428571-2.0789389 0-1.1406262-.9079287-2.078939-2.0428571-2.078939s-2.0428571.9383128-2.0428571 2.078939c0 1.1406261.9079287 2.0789389 2.0428571 2.0789389z"/><path fill="#fff" d="m55.4557018 81.0013495c.0149304 0 .0295791-.0006747.0442278-.0013495.0146487.0006748.0291565.0013495.0442277.0013495 3.5599112.0538465 6.4558427 2.872893 6.4558427 6.284521 0 4.171147-4.708404 7.2007594-6.5569548 8.7141295-1.876583-1.5614726-6.4430452-4.8262502-6.4430452-8.7141295-.0001409-3.411628 2.8960724-6.2305395 6.4557018-6.284521zm.0442982 8.9953347c1.5385075 0 2.7857143-1.2083858 2.7857143-2.6990053 0-1.4906194-1.2472068-2.6990052-2.7857143-2.6990052s-2.7857143 1.2083858-2.7857143 2.6990052c0 1.4906195 1.2472068 2.6990053 2.7857143 2.6990053z"/><path fill="#c7c7c7" d="m55.4557018 81.0013495c.0149304 0 .0295791-.0006747.0442278-.0013495.0146487.0006748.0291565.0013495.0442277.0013495 3.5599112.0538465 6.4558427 2.872893 6.4558427 6.284521 0 4.171147-4.708404 7.2007594-6.5569548 8.7141295-1.876583-1.5614726-6.4430452-4.8262502-6.4430452-8.7141295-.0001409-3.411628 2.8960724-6.2305395 6.4557018-6.284521zm0 .8.0121306-.0000919c-3.1300748.0474673-5.6679549 2.5179152-5.6678324 5.4846129 0 1.8452227 1.1996942 3.7315389 3.3620514 5.7450154.458778.4271907.9395332.8418875 1.5143118 1.3140252.1209265.0993321.4711321.3828584.7801985.6337274.6966193-.5469289 1.8804157-1.4883585 2.3670375-1.9212462 2.1817152-1.9408045 3.3764008-3.8031702 3.3764008-5.7715218 0-2.9668483-2.5377732-5.4372662-5.6558427-5.484521-.0250297-.0003143-.035576-.0004467-.0453681-.0007333-.0093985.000206-.0220495.000404-.0430874.0007333zm.0442982 8.1953347c-1.5385075 0-2.7857143-1.2083858-2.7857143-2.6990053 0-1.4906194 1.2472068-2.6990052 2.7857143-2.6990052s2.7857143 1.2083858 2.7857143 2.6990052c0 1.4906195-1.2472068 2.6990053-2.7857143 2.6990053zm0-.8c1.1022416 0 1.9857143-.8559735 1.9857143-1.8990053s-.8834727-1.8990052-1.9857143-1.8990052-1.9857143.8559734-1.9857143 1.8990052.8834727 1.8990053 1.9857143 1.8990053z"/></g></g></svg>